<svg width="308" height="308" viewBox="0 0 308 308" fill="none" xmlns="http://www.w3.org/2000/svg">
<rect width="308" height="308" fill="white"/>
<g clip-path="url(#clip0_323_5132)">
<path d="M226.897 216.085C145.128 255 94.3812 222.441 61.8965 202.665C59.8863 201.419 56.4698 202.956 59.4341 206.361C70.2564 219.483 105.723 251.112 152.018 251.112C198.344 251.112 225.904 225.834 229.352 221.424C232.776 217.052 230.357 214.64 226.897 216.085H226.897ZM249.862 203.402C247.666 200.543 236.51 200.01 229.489 200.872C222.457 201.71 211.902 206.008 212.819 208.588C213.29 209.555 214.251 209.121 219.082 208.687C223.926 208.203 237.496 206.491 240.323 210.187C243.164 213.909 235.995 231.639 234.686 234.498C233.421 237.358 235.169 238.095 237.546 236.191C239.889 234.287 244.132 229.357 246.979 222.38C249.806 215.365 251.53 205.579 249.861 203.402H249.862Z" fill="#FF9900"/>
<path fill-rule="evenodd" clip-rule="evenodd" d="M171.917 136.678C171.917 146.889 172.175 155.404 167.014 164.472C162.848 171.845 156.25 176.379 148.877 176.379C138.813 176.379 132.952 168.712 132.952 157.395C132.952 135.056 152.968 131.001 171.917 131.001V136.678ZM198.347 200.561C196.614 202.109 194.107 202.22 192.154 201.188C183.454 193.963 181.906 190.609 177.114 183.715C162.738 198.387 152.563 202.773 133.911 202.773C111.867 202.773 94.689 189.17 94.689 161.929C94.689 140.66 106.228 126.172 122.63 119.095C136.86 112.828 156.729 111.722 171.917 109.99V106.599C171.917 100.368 172.395 92.9961 168.746 87.6145C165.539 82.7853 159.42 80.7946 154.037 80.7946C144.048 80.7946 135.127 85.9183 132.952 96.5346C132.509 98.8944 130.777 101.217 128.418 101.327L102.983 98.5999C100.845 98.1198 98.4862 96.3878 99.076 93.1064C104.937 62.29 132.767 53 157.686 53C170.441 53 187.103 56.3917 197.166 66.05C209.921 77.9562 208.704 93.8438 208.704 111.132V151.976C208.704 164.252 213.791 169.633 218.583 176.269C220.279 178.628 220.648 181.467 218.51 183.236C213.164 187.696 203.654 195.99 198.42 200.635L198.346 200.561" fill="black"/>
<path d="M226.897 216.085C145.128 255 94.3812 222.441 61.8965 202.665C59.8863 201.419 56.4698 202.956 59.4341 206.361C70.2564 219.483 105.723 251.112 152.018 251.112C198.344 251.112 225.904 225.834 229.352 221.424C232.776 217.052 230.357 214.64 226.897 216.085H226.897ZM249.862 203.402C247.666 200.543 236.51 200.01 229.489 200.872C222.457 201.71 211.902 206.008 212.819 208.588C213.29 209.555 214.251 209.121 219.082 208.687C223.926 208.203 237.496 206.491 240.323 210.187C243.164 213.909 235.995 231.639 234.686 234.498C233.421 237.358 235.169 238.095 237.546 236.191C239.889 234.287 244.132 229.357 246.979 222.38C249.806 215.365 251.53 205.579 249.861 203.402H249.862Z" fill="#FF9900"/>
<path fill-rule="evenodd" clip-rule="evenodd" d="M171.917 136.678C171.917 146.889 172.175 155.404 167.014 164.472C162.848 171.845 156.25 176.379 148.877 176.379C138.813 176.379 132.952 168.712 132.952 157.395C132.952 135.056 152.968 131.001 171.917 131.001V136.678ZM198.347 200.561C196.614 202.109 194.107 202.22 192.154 201.188C183.454 193.963 181.906 190.609 177.114 183.715C162.738 198.387 152.563 202.773 133.911 202.773C111.867 202.773 94.689 189.17 94.689 161.929C94.689 140.66 106.228 126.172 122.63 119.095C136.86 112.828 156.729 111.722 171.917 109.99V106.599C171.917 100.368 172.395 92.9961 168.746 87.6145C165.539 82.7853 159.42 80.7946 154.037 80.7946C144.048 80.7946 135.127 85.9183 132.952 96.5346C132.509 98.8944 130.777 101.217 128.418 101.327L102.983 98.5999C100.845 98.1198 98.4862 96.3878 99.076 93.1064C104.937 62.29 132.767 53 157.686 53C170.441 53 187.103 56.3917 197.166 66.05C209.921 77.9562 208.704 93.8438 208.704 111.132V151.976C208.704 164.252 213.791 169.633 218.583 176.269C220.279 178.628 220.648 181.467 218.51 183.236C213.164 187.696 203.654 195.99 198.42 200.635L198.346 200.561" fill="black"/>
</g>
<defs>
<clipPath id="clip0_323_5132">
<rect width="202" height="202" fill="white" transform="translate(53 53)"/>
</clipPath>
</defs>
</svg>
