<svg width="51" height="51" viewBox="0 0 51 51" fill="none" xmlns="http://www.w3.org/2000/svg">
<rect width="51" height="51" rx="25.5" fill="white"/>
<rect x="10.5" y="10.5" width="30" height="30" rx="15" fill="white"/>
<path d="M12.9082 28.8118C12.9082 30.1139 13.194 31.1135 13.5675 31.7183C14.0573 32.5105 14.7877 32.8461 15.5325 32.8461C16.493 32.8461 17.3717 32.6077 19.0651 30.2657C20.4217 28.3885 22.0202 25.7536 23.0957 24.1017L24.9172 21.3031C26.1825 19.3595 27.647 17.1989 29.3261 15.7344C30.697 14.5391 32.1757 13.875 33.6639 13.875C36.1625 13.875 38.5425 15.3229 40.3639 18.0385C42.3573 21.0126 43.325 24.7586 43.325 28.6245C43.325 30.9226 42.872 32.6113 42.1012 33.9453C41.3565 35.2355 39.905 36.5245 37.4634 36.5245V32.8461C39.554 32.8461 40.0758 30.925 40.0758 28.7265C40.0758 25.5935 39.3453 22.1166 37.7361 19.6323C36.5941 17.8701 35.1142 16.7934 33.4861 16.7934C31.7251 16.7934 30.308 18.1215 28.7154 20.4896C27.8687 21.7478 26.9995 23.2811 26.0236 25.0112L24.9492 26.9145C22.791 30.7412 22.2443 31.6128 21.1652 33.0512C19.2738 35.5699 17.6587 36.5245 15.5325 36.5245C13.0102 36.5245 11.4152 35.4324 10.4274 33.7864C9.62105 32.4452 9.22498 30.6855 9.22498 28.6802L12.9082 28.8118Z" fill="#2A58FF"/>
<path d="M12.1292 18.2982C13.8178 15.6953 16.2547 13.875 19.0497 13.875C20.6684 13.875 22.2776 14.3541 23.9579 15.7261C25.796 17.2262 27.755 19.6963 30.199 23.7673L31.0753 25.2282C33.1908 28.7525 34.3945 30.5657 35.0989 31.4207C36.0048 32.5188 36.6393 32.8461 37.4634 32.8461C39.5541 32.8461 40.0758 30.925 40.0758 28.7265L43.325 28.6245C43.325 30.9226 42.872 32.6113 42.1012 33.9453C41.3565 35.2355 39.9051 36.5245 37.4634 36.5245C35.9456 36.5245 34.6008 36.1949 33.1138 34.792C31.9706 33.7153 30.6342 31.8025 29.6061 30.0831L26.5478 24.9745C25.0133 22.4107 23.6057 20.4991 22.791 19.6334C21.9147 18.7026 20.7882 17.5784 18.9904 17.5784C17.5354 17.5784 16.2997 18.5994 15.2657 20.1611L12.1292 18.2982Z" fill="#2A58FF"/>
<path d="M18.9904 17.5784C17.5353 17.5784 16.2997 18.5994 15.2656 20.1611C13.8035 22.368 12.9082 25.6551 12.9082 28.8118C12.9082 30.1139 13.194 31.1135 13.5675 31.7183L10.4274 33.7864C9.62105 32.4452 9.22498 30.6855 9.22498 28.6802C9.22498 25.0337 10.2258 21.2331 12.1291 18.2982C13.8177 15.6953 16.2546 13.875 19.0497 13.875L18.9904 17.5784Z" fill="#2A58FF"/>
</svg>
