<svg width="51" height="51" viewBox="0 0 51 51" fill="none" xmlns="http://www.w3.org/2000/svg">
<rect width="51" height="51" rx="25.5" fill="white"/>
<path d="M40.4999 25.8375C40.4999 24.85 40.4105 23.9125 40.2572 23H25.8256V28.6375H34.0887C33.7183 30.4875 32.6327 32.05 31.0235 33.1125V36.8625H35.9533C38.8396 34.25 40.4999 30.4 40.4999 25.8375Z" fill="#4285F4"/>
<path d="M25.8257 40.5C29.9637 40.5 33.4247 39.15 35.9535 36.8625L31.0237 33.1125C29.6444 34.0125 27.8947 34.5625 25.8257 34.5625C21.8283 34.5625 18.4439 31.925 17.2306 28.3625H12.1476V32.225C14.6635 37.125 19.836 40.5 25.8257 40.5Z" fill="#34A853"/>
<path d="M17.2305 28.3625C16.9112 27.4625 16.7452 26.5 16.7452 25.5C16.7452 24.5 16.924 23.5375 17.2305 22.6375V18.775H12.1475C11.1003 20.8 10.5 23.075 10.5 25.5C10.5 27.925 11.1003 30.2 12.1475 32.225L17.2305 28.3625Z" fill="#FBBC05"/>
<path d="M25.8257 16.4375C28.0863 16.4375 30.1042 17.2 31.7006 18.6875L36.0684 14.4125C33.4247 11.9875 29.9637 10.5 25.8257 10.5C19.836 10.5 14.6635 13.875 12.1476 18.775L17.2306 22.6375C18.4439 19.075 21.8283 16.4375 25.8257 16.4375Z" fill="#EA4335"/>
</svg>
