<svg width="51" height="51" viewBox="0 0 51 51" fill="none" xmlns="http://www.w3.org/2000/svg">
<rect width="51" height="51" rx="25.5" fill="white"/>
<path d="M38.5969 31.8215C38.4435 31.4612 38.2898 31.0709 38.1365 30.7403C37.8905 30.2 37.6447 29.6891 37.4303 29.2088L37.3997 29.1788C35.2807 24.6741 33.0089 20.11 30.6136 15.6059L30.5216 15.4253C30.2696 14.9581 30.0241 14.4875 29.7851 14.0138C29.4777 13.4729 29.171 12.903 28.6796 12.3621C27.6971 11.1609 26.2845 10.5 24.7802 10.5C23.2447 10.5 21.8631 11.1609 20.8502 12.3018C20.3895 12.8421 20.0515 13.4126 19.7447 13.9535C19.5051 14.4269 19.2596 14.8975 19.0083 15.365L18.9159 15.5456C16.5515 20.0497 14.2488 24.6141 12.1301 29.1185L12.0992 29.1782C11.8844 29.6594 11.6384 30.1697 11.3927 30.7097C11.2394 31.0403 11.086 31.4006 10.9326 31.7909C10.5332 32.9018 10.4102 33.9529 10.5642 35.0344C10.9019 37.2868 12.4369 39.1779 14.5559 40.0194C15.3543 40.35 16.1834 40.5 17.0429 40.5C17.2886 40.5 17.5954 40.47 17.8414 40.4397C18.8549 40.3197 19.8987 39.9897 20.9122 39.4191C22.1711 38.7282 23.3686 37.7377 24.7195 36.2962C26.0704 37.7377 27.2986 38.7282 28.5268 39.4191C29.5406 39.9897 30.5841 40.3197 31.5973 40.4397C31.843 40.4703 32.1504 40.5 32.3961 40.5C33.2559 40.5 34.1154 40.35 34.8828 40.0194C37.0325 39.1779 38.5368 37.2568 38.8748 35.0344C39.1186 33.9835 38.9959 32.933 38.5969 31.8215ZM24.7493 33.3829C23.091 31.3409 22.0162 29.4191 21.6481 27.798C21.4947 27.1071 21.4637 26.5065 21.5561 25.9659C21.6171 25.4853 21.8018 25.0647 22.0475 24.7044C22.6309 23.8941 23.6134 23.3832 24.7496 23.3832C25.8861 23.3832 26.8992 23.8638 27.452 24.7044C27.6977 25.0647 27.8817 25.4856 27.9437 25.9659C28.0354 26.5068 28.0047 27.1371 27.8514 27.798C27.4817 29.3891 26.4069 31.3112 24.7493 33.3829ZM37 34.7944C36.7852 36.3559 35.7104 37.7076 34.2062 38.3082C33.4694 38.6082 32.6706 38.6985 31.8728 38.6082C31.1053 38.5179 30.3372 38.2776 29.5394 37.8276C28.4339 37.2265 27.3287 36.2962 26.0388 34.9144C28.0652 32.4824 29.2934 30.2597 29.7541 28.2782C29.9691 27.3471 30.0001 26.5065 29.9075 25.7253C29.7851 24.9747 29.5084 24.2838 29.0786 23.6832C28.1262 22.3315 26.5293 21.5512 24.749 21.5512C22.9686 21.5512 21.3717 22.3621 20.4199 23.6832C19.9901 24.2838 19.7134 24.9747 19.5908 25.7253C19.4681 26.5065 19.4984 27.3771 19.7441 28.2782C20.2045 30.2597 21.4634 32.5121 23.4591 34.9444C22.2002 36.3259 21.064 37.2571 19.9585 37.8577C19.1601 38.3082 18.3929 38.5485 17.6255 38.6382C16.7966 38.7285 15.9979 38.6082 15.2917 38.3382C13.7875 37.7377 12.7127 36.3859 12.4979 34.8244C12.4059 34.0738 12.4669 33.3232 12.7743 32.4824C12.866 32.1818 13.02 31.8818 13.1734 31.5215C13.3884 31.0409 13.6335 30.53 13.8795 30.0197L13.9105 29.96C16.0289 25.4853 18.3009 20.9209 20.6653 16.4768L20.7573 16.2962C21.0033 15.8462 21.249 15.3656 21.4944 14.915C21.7401 14.4344 22.0162 13.9838 22.3542 13.5932C22.999 12.8733 23.8585 12.4824 24.8106 12.4824C25.7627 12.4824 26.6222 12.8733 27.267 13.5932C27.605 13.9847 27.8811 14.4353 28.1268 14.915C28.3728 15.3656 28.6185 15.8462 28.8636 16.2962L28.9559 16.4768C31.2843 20.9394 33.5261 25.4446 35.6804 29.99V30.02C35.9264 30.5012 36.1411 31.0412 36.3868 31.5224C36.5402 31.8821 36.6938 32.1821 36.7859 32.4827C37.031 33.2627 37.123 34.0138 37 34.7944Z" fill="#FF5A5F"/>
</svg>
