<svg width="344" height="304" viewBox="0 0 344 304" fill="none" xmlns="http://www.w3.org/2000/svg">
<rect width="344" height="304" rx="24.6154" fill="#151515"/>
<path d="M185.333 272V245.333H212V272H185.333ZM158.667 245.333V178.667H185.333V245.333H158.667ZM265.333 205.333V152H292V205.333H265.333ZM238.667 152V125.333H265.333V152H238.667ZM78.6667 178.667V152H105.333V178.667H78.6667ZM52 152V125.333H78.6667V152H52ZM172 58.6667V32H198.667V58.6667H172ZM72 92H112V52H72V92ZM52 112V32H132V112H52ZM72 252H112V212H72V252ZM52 272V192H132V272H52ZM232 92H272V52H232V92ZM212 112V32H292V112H212ZM238.667 272V232H212V205.333H265.333V245.333H292V272H238.667ZM185.333 178.667V152H238.667V178.667H185.333ZM132 178.667V152H105.333V125.333H185.333V152H158.667V178.667H132ZM145.333 112V58.6667H172V85.3333H198.667V112H145.333ZM82 82V62H102V82H82ZM82 242V222H102V242H82ZM242 82V62H262V82H242Z" fill="white"/>
</svg>
