<svg width="13" height="15" viewBox="0 0 13 15" fill="none" xmlns="http://www.w3.org/2000/svg">
<path d="M5.9295 1.5519C6.24759 1.24418 6.75241 1.24418 7.0705 1.5519L7.81862 2.27563C8.00051 2.4516 8.25344 2.53378 8.50403 2.49833L9.53466 2.35256C9.97287 2.29057 10.3813 2.5873 10.4577 3.02322L10.6376 4.04846C10.6813 4.29774 10.8376 4.51289 11.0612 4.6315L11.9807 5.11936C12.3716 5.32679 12.5276 5.8069 12.3333 6.20451L11.8761 7.13966C11.765 7.36703 11.765 7.63297 11.8761 7.86034L12.3333 8.79549C12.5276 9.1931 12.3716 9.67321 11.9807 9.88064L11.0612 10.3685C10.8376 10.4871 10.6813 10.7023 10.6376 10.9515L10.4577 11.9768C10.3813 12.4127 9.97288 12.7094 9.53466 12.6474L8.50403 12.5017C8.25344 12.4662 8.00051 12.5484 7.81862 12.7244L7.0705 13.4481C6.75241 13.7558 6.24759 13.7558 5.9295 13.4481L5.18139 12.7244C4.99949 12.5484 4.74656 12.4662 4.49597 12.5017L3.46534 12.6474C3.02712 12.7094 2.61872 12.4127 2.54225 11.9768L2.36241 10.9515C2.31868 10.7023 2.16237 10.4871 1.9388 10.3685L1.01932 9.88064C0.628362 9.67321 0.472364 9.1931 0.666728 8.79549L1.12385 7.86034C1.235 7.63297 1.235 7.36703 1.12385 7.13966L0.666728 6.20451C0.472364 5.8069 0.628361 5.32679 1.01932 5.11936L1.9388 4.6315C2.16237 4.51289 2.31868 4.29774 2.36241 4.04846L2.54225 3.02322C2.61872 2.5873 3.02712 2.29057 3.46534 2.35256L4.49597 2.49833C4.74656 2.53378 4.99949 2.4516 5.18139 2.27563L5.9295 1.5519Z" stroke="#979797"/>
<g clip-path="url(#clip0_146_1217)">
<path d="M8.50008 5.875L5.52092 8.85417L4.16675 7.5" stroke="#979797" stroke-width="0.857143" stroke-linecap="round" stroke-linejoin="round"/>
</g>
<defs>
<clipPath id="clip0_146_1217">
<rect width="6.5" height="6.5" fill="white" transform="translate(3.08337 4.25)"/>
</clipPath>
</defs>
</svg>
